# Blender v3.5.0 OBJ File: 'CityBits_SOURCE.blend'
# www.blender.org
mtllib box_B.mtl
o box_B_Cube.930
v -0.608235 -0.000000 0.608235
v -0.608235 -0.000000 -0.608235
v 0.608235 -0.000000 0.608235
v 0.608235 1.069082 0.608235
v 0.608235 -0.000000 -0.608235
v 0.608235 1.069082 -0.608235
v -0.504523 0.876886 0.626950
v -0.462377 0.649495 0.626950
v -0.174007 0.938146 0.626950
v -0.131861 0.710756 0.626950
v 0.000000 1.357058 0.608235
v 0.000000 1.357058 -0.608235
v -0.608235 1.069082 -0.608235
v -0.608235 1.069082 0.608235
v 0.000000 1.069082 -0.608235
v 0.000000 1.069082 0.608235
vt 0.651250 0.539266
vt 0.682918 0.539266
vt 0.682918 0.539266
vt 0.651250 0.539266
vt 0.651250 0.593695
vt 0.651250 0.638891
vt 0.651250 0.638891
vt 0.651250 0.593695
vt 0.714587 0.593695
vt 0.714587 0.638891
vt 0.714587 0.638891
vt 0.714587 0.593695
vt 0.676053 0.695992
vt 0.673859 0.705605
vt 0.656651 0.703015
vt 0.658845 0.693402
vt 0.651250 0.568321
vt 0.651250 0.568321
vt 0.714587 0.568321
vt 0.714587 0.568321
vt 0.682918 0.638891
vt 0.682918 0.676953
vt 0.682918 0.676953
vt 0.714587 0.676953
vt 0.714587 0.676953
vt 0.651250 0.676953
vt 0.682918 0.689127
vt 0.682918 0.689127
vt 0.651250 0.676953
vt 0.682918 0.638891
vn 0.0000 1.0000 0.0000
vn -1.0000 0.0000 0.0000
vn 1.0000 0.0000 0.0000
vn 0.0000 0.0000 1.0000
vn 0.0000 -1.0000 -0.0000
vn 0.0000 0.0000 -1.0000
vn -0.4279 0.9038 0.0000
usemtl citybits_texture
s off
f 14/1/1 16/2/1 15/3/1 13/4/1
s 1
f 1/5/2 14/6/2 13/7/2 2/8/2
f 5/9/3 6/10/3 4/11/3 3/12/3
f 10/13/4 9/14/4 7/15/4 8/16/4
f 1/17/5 2/18/5 5/19/5 3/20/5
f 15/21/6 6/10/6 5/9/6
f 15/22/1 16/23/1 4/24/1 6/25/1
f 14/26/7 11/27/7 12/28/7 13/29/7
f 4/11/4 16/30/4 3/12/4
f 1/5/4 3/12/4 16/30/4 14/6/4
f 2/8/6 13/7/6 15/21/6 5/9/6
