# Blender v3.5.0 OBJ File: 'CityBits_SOURCE.blend'
# www.blender.org
mtllib bush_C.mtl
o bush_C_Cube.14217
v 0.926154 -0.000003 -0.823417
v 1.168062 -0.000003 0.230558
v 0.537172 -0.000003 1.127946
v -0.542860 -0.000003 1.153472
v -1.185411 -0.000003 0.280369
v -0.899540 -0.000003 -0.784045
v 0.029420 -0.000003 -1.266065
v 0.047666 0.304302 -1.635231
v 0.052229 0.957847 -1.630545
v 1.188233 0.296455 -1.070387
v -1.147008 0.302605 -1.016800
v -1.138416 1.073740 -1.011663
v -1.534293 0.306995 0.357442
v -1.526536 1.064705 0.361542
v -0.704205 0.299662 1.497560
v -0.700342 0.937284 1.500443
v 0.705310 0.296914 1.461943
v 0.705003 0.934464 1.463686
v 1.509872 0.292969 0.289483
v 1.506732 1.052563 0.291149
v 1.186906 1.058655 -1.067571
v 0.942373 1.835404 0.200763
v 0.756304 1.841552 -0.651684
v 0.431138 1.833139 0.923019
v 0.012112 2.219413 0.016565
v -0.425893 1.836652 0.946168
v -0.936346 1.844866 0.246325
v -0.713111 1.848851 -0.615872
v 0.033120 1.847749 -1.010205
vt 0.292326 0.296606
vt 0.290785 0.306821
vt 0.296406 0.306777
vt 0.296839 0.296617
vt 0.303495 0.306899
vt 0.302593 0.296707
vt 0.290810 0.318409
vt 0.296409 0.318380
vt 0.303464 0.318512
vt 0.290772 0.318164
vt 0.290755 0.306703
vt 0.292389 0.296455
vt 0.297094 0.317893
vt 0.297097 0.306459
vt 0.297438 0.296290
vt 0.304775 0.318157
vt 0.304799 0.306721
vt 0.303530 0.296476
vt 0.307369 0.318561
vt 0.307409 0.307023
vt 0.305681 0.296736
vt 0.303997 0.337403
vt 0.302327 0.337219
vt 0.301664 0.337404
vt 0.298653 0.370276
vt 0.297235 0.337343
vt 0.297719 0.337090
vt 0.293881 0.337193
vt 0.293788 0.337310
vn -0.5234 -0.7478 -0.4085
vn -0.7180 -0.3707 -0.5891
vn -0.0071 -0.3823 -0.9240
vn -0.0199 -0.7731 -0.6340
vn 0.7185 -0.3865 -0.5783
vn 0.5060 -0.7717 -0.3852
vn -0.7333 0.3032 -0.6086
vn -0.0053 0.2781 -0.9606
vn 0.7406 0.3015 -0.6004
vn -0.9365 0.3017 0.1789
vn -0.9128 -0.3740 0.1638
vn -0.6430 -0.7583 0.1073
vn -0.4182 0.2720 0.8667
vn -0.4084 -0.3908 0.8249
vn -0.2818 -0.7822 0.5556
vn 0.4534 0.2665 0.8505
vn 0.4377 -0.3909 0.8097
vn 0.3018 -0.7804 0.5477
vn 0.9391 0.2904 0.1836
vn 0.9080 -0.3838 0.1684
vn 0.6340 -0.7636 0.1222
vn 0.6463 0.7497 0.1422
vn 0.3099 0.7433 0.5929
vn 0.5100 0.7625 -0.3982
vn 0.0052 1.0000 0.0061
vn -0.0078 0.7604 -0.6494
vn -0.2780 0.7499 0.6004
vn -0.6348 0.7611 0.1330
vn -0.5042 0.7604 -0.4093
usemtl citybits_texture
s 1
f 6/1/1 11/2/2 8/3/3 7/4/4
f 7/4/4 8/3/3 10/5/5 1/6/6
f 12/7/7 9/8/8 8/3/3 11/2/2
f 9/8/8 21/9/9 10/5/5 8/3/3
f 14/10/10 12/7/7 11/2/2 13/11/11
f 5/12/12 13/11/11 11/2/2 6/1/1
f 16/13/13 14/10/10 13/11/11 15/14/14
f 4/15/15 15/14/14 13/11/11 5/12/12
f 18/16/16 16/13/13 15/14/14 17/17/17
f 3/18/18 17/17/17 15/14/14 4/15/15
f 20/19/19 18/16/16 17/17/17 19/20/20
f 2/21/21 19/20/20 17/17/17 3/18/18
f 21/9/9 20/19/19 19/20/20 10/5/5
f 1/6/6 10/5/5 19/20/20 2/21/21
f 20/19/19 22/22/22 24/23/23 18/16/16
f 21/9/9 23/24/24 22/22/22 20/19/19
f 25/25/25 22/22/22 23/24/24
f 25/25/25 24/23/23 22/22/22
f 25/25/25 23/24/24 29/26/26
f 25/25/25 26/27/27 24/23/23
f 25/25/25 27/28/28 26/27/27
f 25/25/25 28/29/29 27/28/28
f 25/25/25 29/26/26 28/29/29
f 12/7/7 28/29/29 29/26/26 9/8/8
f 9/8/8 29/26/26 23/24/24 21/9/9
f 14/10/10 27/28/28 28/29/29 12/7/7
f 16/13/13 26/27/27 27/28/28 14/10/10
f 18/16/16 24/23/23 26/27/27 16/13/13
