# Blender v3.5.0 OBJ File: 'CityBits_SOURCE.blend'
# www.blender.org
mtllib car_hatchback_wheel_front_right.mtl
o car_hatchback_wheel_front_right_Cylinder.297
v 136.245041 -0.000006 -24.519667
v 136.188202 -0.000006 -24.578512
v 135.755188 -0.000006 -24.519667
v 135.812027 -0.000006 -24.578512
v 136.245041 -0.259782 -24.450060
v 136.188202 -0.289204 -24.501020
v 135.755188 -0.259782 -24.450060
v 135.812027 -0.289204 -24.501020
v 136.245041 -0.449951 -24.259892
v 136.188202 -0.500912 -24.289312
v 135.755188 -0.449951 -24.259892
v 135.812027 -0.500912 -24.289314
v 136.245041 -0.519558 -24.000114
v 136.188202 -0.578403 -24.000114
v 135.755188 -0.519558 -24.000114
v 135.812027 -0.578403 -24.000114
v 136.245041 -0.449951 -23.740339
v 136.188202 -0.500912 -23.710917
v 135.755188 -0.449951 -23.740339
v 135.812027 -0.500912 -23.710917
v 136.245041 -0.259782 -23.550169
v 136.188202 -0.289204 -23.499208
v 135.755188 -0.259782 -23.550169
v 135.812027 -0.289204 -23.499208
v 136.245041 -0.000006 -23.480562
v 136.188202 -0.000006 -23.421719
v 135.755188 -0.000006 -23.480562
v 135.812027 -0.000006 -23.421719
v 136.245041 0.259770 -23.550169
v 136.188202 0.289193 -23.499208
v 135.755188 0.259770 -23.550169
v 135.812027 0.289193 -23.499208
v 136.245041 0.449940 -23.740339
v 136.188202 0.500901 -23.710917
v 135.755188 0.449939 -23.740339
v 135.812027 0.500901 -23.710917
v 136.245041 0.519546 -24.000114
v 136.188202 0.578391 -24.000114
v 135.755188 0.519546 -24.000114
v 135.812027 0.578391 -24.000114
v 136.245041 0.449940 -24.259890
v 136.188202 0.500901 -24.289312
v 135.755188 0.449940 -24.259892
v 135.812027 0.500901 -24.289312
v 136.245041 0.259770 -24.450060
v 136.188202 0.289193 -24.501020
v 135.755188 0.259770 -24.450060
v 135.812027 0.289193 -24.501020
v 136.245041 -0.000006 -24.000114
v 135.755188 -0.160526 -24.278145
v 135.755188 -0.000006 -24.321156
v 135.755188 0.160515 -24.278145
v 135.755188 0.278024 -24.160635
v 135.755188 0.321035 -24.000114
v 135.755188 0.278024 -23.839594
v 135.755188 0.160515 -23.722086
v 135.755188 -0.000006 -23.679073
v 135.755188 -0.160526 -23.722086
v 135.755188 -0.278035 -23.839594
v 135.755188 -0.321047 -24.000114
v 135.755188 -0.278035 -24.160635
v 135.821793 -0.000004 -24.253098
v 135.821793 -0.126494 -24.219204
v 135.821793 -0.219090 -24.126608
v 135.821793 0.126485 -24.219204
v 135.821793 0.219081 -24.126608
v 135.821793 0.252974 -24.000118
v 135.821793 0.219081 -23.873631
v 135.821793 0.126485 -23.781033
v 135.821793 -0.000005 -23.747141
v 135.821793 -0.126494 -23.781033
v 135.821793 -0.219090 -23.873631
v 135.821793 -0.252983 -24.000118
v 135.773788 -0.000005 -24.000118
vt 0.539064 0.883872
vt 0.539064 0.845961
vt 0.588376 0.864954
vt 0.588376 0.902865
vt 0.539064 0.780303
vt 0.539064 0.770143
vt 0.588376 0.789136
vt 0.588376 0.799296
vt 0.539064 0.780303
vt 0.588376 0.799296
vt 0.539064 0.808054
vt 0.588376 0.827047
vt 0.539064 0.845961
vt 0.588376 0.864954
vt 0.539064 0.883872
vt 0.588376 0.902865
vt 0.539064 0.911623
vt 0.588376 0.930616
vt 0.539064 0.921780
vt 0.588376 0.940773
vt 0.539064 0.911623
vt 0.588376 0.930616
vt 0.539064 0.808054
vt 0.588376 0.827047
vt 0.307767 0.935938
vt 0.299036 0.923717
vt 0.299036 0.930742
vt 0.307767 0.944852
vt 0.539064 0.870890
vt 0.531613 0.870890
vt 0.531613 0.836838
vt 0.539064 0.832982
vt 0.588376 0.851975
vt 0.595826 0.836838
vt 0.595826 0.870890
vt 0.588376 0.889883
vt 0.531613 0.811911
vt 0.539064 0.805231
vt 0.588376 0.824224
vt 0.595826 0.811911
vt 0.531613 0.802787
vt 0.539064 0.795071
vt 0.588376 0.814064
vt 0.595826 0.802787
vt 0.531613 0.811911
vt 0.539064 0.805231
vt 0.588376 0.824224
vt 0.595826 0.811911
vt 0.531613 0.836838
vt 0.539064 0.832982
vt 0.588376 0.851975
vt 0.595826 0.836838
vt 0.531613 0.870890
vt 0.539064 0.870890
vt 0.588376 0.889883
vt 0.595826 0.870890
vt 0.531613 0.904944
vt 0.539064 0.908800
vt 0.588376 0.927794
vt 0.595826 0.904944
vt 0.531613 0.929871
vt 0.539064 0.936551
vt 0.588376 0.955544
vt 0.595826 0.929871
vt 0.531613 0.938996
vt 0.539064 0.946708
vt 0.588376 0.965701
vt 0.595826 0.938996
vt 0.531613 0.929871
vt 0.539064 0.936551
vt 0.588376 0.955544
vt 0.595826 0.929871
vt 0.531613 0.904944
vt 0.539064 0.908800
vt 0.588376 0.927794
vt 0.595826 0.904944
vt 0.531613 0.837652
vt 0.531613 0.837652
vt 0.531613 0.803600
vt 0.531613 0.778674
vt 0.531613 0.769549
vt 0.531613 0.778674
vt 0.531613 0.803600
vt 0.531613 0.837652
vt 0.531613 0.871706
vt 0.531613 0.896633
vt 0.531613 0.905758
vt 0.531613 0.896633
vt 0.531613 0.871706
vt 0.595826 0.849848
vt 0.595826 0.870890
vt 0.595826 0.891931
vt 0.595826 0.907336
vt 0.595826 0.912973
vt 0.595826 0.907336
vt 0.595826 0.891931
vt 0.595826 0.870890
vt 0.595826 0.849848
vt 0.595826 0.834446
vt 0.595826 0.828807
vt 0.595826 0.834446
vt 0.307767 0.811737
vt 0.299036 0.825847
vt 0.299036 0.832877
vt 0.307767 0.820656
vt 0.299036 0.852073
vt 0.307767 0.845016
vt 0.307767 0.878295
vt 0.299036 0.878295
vt 0.299036 0.852073
vt 0.307767 0.845016
vt 0.299036 0.923717
vt 0.307767 0.935938
vt 0.307767 0.878295
vt 0.299036 0.878295
vt 0.299036 0.904521
vt 0.307767 0.911574
vt 0.299036 0.832877
vt 0.307767 0.820656
vt 0.299036 0.904521
vt 0.307767 0.911574
vt 0.321470 0.828705
vt 0.321470 0.797823
vt 0.327761 0.870890
vt 0.321470 0.943964
vt 0.321470 0.913082
vt 0.321470 0.955266
vt 0.321470 0.943964
vt 0.321470 0.913082
vt 0.321470 0.870890
vt 0.321470 0.828705
vt 0.321470 0.797823
vt 0.321470 0.786513
vt 0.321470 0.870890
vn -0.0000 0.5000 -0.8660
vn 0.0000 0.0000 -1.0000
vn 0.0000 -0.8660 -0.5000
vn 0.0000 -1.0000 -0.0000
vn 0.0000 -0.8660 0.5000
vn 0.0000 -0.5000 0.8660
vn 0.0000 0.0000 1.0000
vn 0.0000 0.5000 0.8660
vn 0.0000 0.8660 0.5000
vn 0.0000 1.0000 0.0000
vn 0.0000 0.8660 -0.5000
vn 0.0000 -0.5000 -0.8660
vn -0.7147 -0.6057 0.3497
vn -0.7147 -0.6994 -0.0000
vn 0.7193 -0.0000 -0.6947
vn 0.7193 -0.3474 -0.6017
vn -0.7193 -0.3474 -0.6017
vn -0.7193 0.0000 -0.6947
vn 0.7193 -0.6017 -0.3474
vn -0.7193 -0.6016 -0.3474
vn 0.7193 -0.6947 0.0000
vn -0.7193 -0.6947 0.0000
vn 0.7193 -0.6016 0.3474
vn -0.7193 -0.6016 0.3474
vn 0.7193 -0.3473 0.6017
vn -0.7193 -0.3474 0.6017
vn 0.7192 0.0000 0.6948
vn -0.7193 -0.0000 0.6947
vn 0.7192 0.3474 0.6017
vn -0.7193 0.3474 0.6017
vn 0.7192 0.6017 0.3474
vn -0.7193 0.6016 0.3474
vn -0.7193 0.6017 0.3474
vn 0.7193 0.6947 -0.0000
vn -0.7193 0.6947 -0.0000
vn 0.7193 0.6016 -0.3474
vn -0.7193 0.6016 -0.3474
vn 0.7193 0.3473 -0.6017
vn -0.7192 0.3474 -0.6017
vn 1.0000 0.0000 0.0000
vn -1.0000 0.0000 0.0000
vn -0.7147 0.6994 -0.0000
vn -0.7147 0.6057 0.3497
vn -0.7147 0.3497 0.6057
vn -0.7147 0.0000 -0.6994
vn -0.7147 0.3497 -0.6057
vn -0.7147 -0.6057 -0.3497
vn -0.7147 0.0000 0.6994
vn -0.7147 -0.3497 0.6057
vn -0.7148 0.6057 -0.3497
vn -0.7147 -0.3497 -0.6057
vn -0.9825 -0.0932 -0.1615
vn -0.9825 -0.1615 -0.0932
vn -0.9825 0.1615 -0.0932
vn -0.9825 0.0932 -0.1615
vn -0.9825 0.1865 0.0000
vn -0.9825 0.1615 0.0932
vn -0.9825 0.0933 0.1615
vn -0.9825 0.0001 0.1864
vn -0.9825 -0.0932 0.1615
vn -0.9825 -0.1615 0.0932
vn -0.9825 -0.1865 -0.0000
vn -0.9825 0.0000 -0.1864
usemtl citybits_texture
s 1
f 46/1/1 2/2/2 4/3/2 48/4/1
f 10/5/3 14/6/4 16/7/4 12/8/3
f 14/6/4 18/9/5 20/10/5 16/7/4
f 18/9/5 22/11/6 24/12/6 20/10/5
f 22/11/6 26/13/7 28/14/7 24/12/6
f 26/13/7 30/15/8 32/16/8 28/14/7
f 30/15/8 34/17/9 36/18/9 32/16/8
f 34/17/9 38/19/10 40/20/10 36/18/9
f 38/19/10 42/21/11 44/22/11 40/20/10
f 42/21/11 46/1/1 48/4/1 44/22/11
f 6/23/12 10/5/3 12/8/3 8/24/12
f 53/25/13 66/26/13 67/27/14 54/28/14
f 2/2/2 6/23/12 8/24/12 4/3/2
f 2/29/15 1/30/15 5/31/16 6/32/16
f 8/33/17 7/34/17 3/35/18 4/36/18
f 6/32/16 5/31/16 9/37/19 10/38/19
f 12/39/20 11/40/20 7/34/17 8/33/17
f 10/38/19 9/37/19 13/41/21 14/42/21
f 16/43/22 15/44/22 11/40/20 12/39/20
f 14/42/21 13/41/21 17/45/23 18/46/23
f 20/47/24 19/48/24 15/44/22 16/43/22
f 18/46/23 17/45/23 21/49/25 22/50/25
f 24/51/26 23/52/26 19/48/24 20/47/24
f 22/50/25 21/49/25 25/53/27 26/54/27
f 28/55/28 27/56/28 23/52/26 24/51/26
f 26/54/27 25/53/27 29/57/29 30/58/29
f 32/59/30 31/60/30 27/56/28 28/55/28
f 30/58/29 29/57/29 33/61/31 34/62/31
f 36/63/32 35/64/33 31/60/30 32/59/30
f 34/62/31 33/61/31 37/65/34 38/66/34
f 40/67/35 39/68/35 35/64/33 36/63/32
f 38/66/34 37/65/34 41/69/36 42/70/36
f 44/71/37 43/72/37 39/68/35 40/67/35
f 42/70/36 41/69/36 45/73/38 46/74/38
f 48/75/39 47/76/39 43/72/37 44/71/37
f 46/74/38 45/73/38 1/30/15 2/29/15
f 4/36/18 3/35/18 47/76/39 48/75/39
f 1/77/40 49/78/40 5/79/40
f 5/79/40 49/78/40 9/80/40
f 9/80/40 49/78/40 13/81/40
f 13/81/40 49/78/40 17/82/40
f 17/82/40 49/78/40 21/83/40
f 21/83/40 49/78/40 25/84/40
f 25/84/40 49/78/40 29/85/40
f 29/85/40 49/78/40 33/86/40
f 33/86/40 49/78/40 37/87/40
f 37/87/40 49/78/40 41/88/40
f 41/88/40 49/78/40 45/89/40
f 45/89/40 49/78/40 1/77/40
f 7/34/41 50/90/41 51/91/41 3/35/41
f 3/35/41 51/91/41 52/92/41 47/76/41
f 47/76/41 52/92/41 53/93/41 43/72/41
f 43/72/41 53/93/41 54/94/41 39/68/41
f 39/68/41 54/94/41 55/95/41 35/64/41
f 35/64/41 55/95/41 56/96/41 31/60/41
f 31/60/41 56/96/41 57/97/41 27/56/41
f 27/56/41 57/97/41 58/98/41 23/52/41
f 23/52/41 58/98/41 59/99/41 19/48/41
f 19/48/41 59/99/41 60/100/41 15/44/41
f 15/44/41 60/100/41 61/101/41 11/40/41
f 11/40/41 61/101/41 50/90/41 7/34/41
f 60/102/42 73/103/42 64/104/43 61/105/43
f 61/105/43 64/104/43 63/106/44 50/107/44
f 57/108/45 70/109/45 71/110/46 58/111/46
f 54/28/14 67/27/14 68/112/47 55/113/47
f 51/114/48 62/115/48 65/116/49 52/117/49
f 58/111/46 71/110/46 72/118/50 59/119/50
f 55/113/47 68/112/47 69/120/51 56/121/51
f 52/117/49 65/116/49 66/26/13 53/25/13
f 59/119/50 72/118/50 73/103/42 60/102/42
f 50/107/44 63/106/44 62/115/48 51/114/48
f 56/121/51 69/120/51 70/109/45 57/108/45
f 63/122/52 64/123/53 74/124/41
f 66/125/54 65/126/55 74/124/41
f 67/127/56 66/125/54 74/124/41
f 68/128/57 67/127/56 74/124/41
f 69/129/58 68/128/57 74/124/41
f 70/130/59 69/129/58 74/124/41
f 71/131/60 70/130/59 74/124/41
f 72/132/61 71/131/60 74/124/41
f 73/133/62 72/132/61 74/124/41
f 64/123/53 73/133/62 74/124/41
f 65/126/55 62/134/63 74/124/41
f 62/134/63 63/122/52 74/124/41
