# Blender v3.5.0 OBJ File: 'CityBits_SOURCE.blend'
# www.blender.org
mtllib park_road_junction_decorated_A.mtl
o park_road_junction_decorated_A_Cube.14224
v 8.000000 0.000000 8.000000
v 8.000000 0.800000 8.000000
v 8.000000 0.000000 -8.000000
v 8.000000 0.800000 -8.000000
v -8.000000 0.000000 8.000000
v -8.000000 0.800000 8.000000
v -8.000000 0.000000 -8.000000
v -8.000000 0.800000 -8.000000
v -2.000000 0.000000 -8.000000
v 2.000000 0.000000 -8.000000
v 2.000000 0.000000 8.000000
v -2.000000 0.000000 8.000000
v 8.000000 0.000000 -2.000000
v -8.000000 0.000000 -2.000000
v 0.000000 0.000000 0.000000
v 8.000000 0.000000 2.000000
v -8.000000 0.000000 2.000000
v -8.000000 0.800000 2.000000
v -2.000000 0.800000 -8.000000
v 8.000000 0.800000 -2.000000
v 2.000000 0.800000 8.000000
v 2.000000 0.800000 -8.000000
v -2.000000 0.800000 8.000000
v -8.000000 0.800000 -2.000000
v 8.000000 0.800000 2.000000
v -2.304482 0.800000 -4.469266
v -2.000000 0.800000 -6.000000
v -3.171573 0.800000 -3.171573
v -6.000000 0.800000 -2.000000
v -4.469266 0.800000 -2.304482
v 4.469266 0.800000 -2.304482
v 6.000000 0.800000 -2.000000
v 3.171573 0.800000 -3.171573
v 2.000000 0.800000 -6.000000
v 2.304482 0.800000 -4.469266
v -2.000000 0.800000 6.000000
v -2.304482 0.800000 4.469266
v -3.171573 0.800000 3.171573
v -4.469266 0.800000 2.304482
v -6.000000 0.800000 2.000000
v 6.000000 0.800000 2.000000
v 4.469266 0.800000 2.304482
v 3.171573 0.800000 3.171573
v 2.304482 0.800000 4.469266
v 2.000000 0.800000 6.000000
v -5.141609 3.031097 -4.866979
v -6.302015 2.628994 -5.516318
v -5.384745 2.623001 -6.174271
v -6.408209 2.650949 -4.361551
v -5.526758 2.671427 -3.569050
v -4.311077 2.675506 -3.796422
v -3.775520 2.659782 -4.853949
v -4.291742 2.635740 -5.892304
v -5.434736 0.799999 -6.475867
v -6.575243 0.799999 -5.659007
v -6.730612 0.799999 -4.209717
v -5.625633 0.799999 -3.201881
v -4.073868 0.799999 -3.492111
v -3.407678 0.799999 -4.831213
v -4.076170 0.799999 -6.126414
v -5.521384 1.543038 -6.918773
v -5.516462 0.911007 -6.905278
v -6.932501 1.102666 -5.894308
v -6.937551 1.855229 -5.907526
v -7.151626 1.127814 -4.079167
v -7.156342 1.888562 -4.092320
v -5.769960 1.145550 -2.799149
v -5.774670 1.921793 -2.812709
v -3.796573 1.149361 -3.168236
v -3.801713 1.928412 -3.181716
v -2.970731 1.135943 -4.861128
v -2.975727 1.902588 -4.874229
v -3.830852 0.911007 -6.474417
v -3.835555 1.557036 -6.487699
v 4.714968 0.799999 3.842558
v 3.883920 0.799999 5.021974
v 4.237558 0.799999 6.427805
v 5.577168 0.799999 6.970253
v 6.802288 0.799999 6.199757
v 6.974451 0.799999 4.753109
v 6.058086 0.799999 3.721601
v 6.225398 1.102006 3.254807
v 6.219349 2.013421 3.253281
v 4.508265 1.118353 3.415524
v 7.406150 1.101902 4.574455
v 7.398438 2.019895 4.568509
v 7.210860 1.147614 6.451308
v 7.206633 2.078477 6.443796
v 5.624528 1.171687 7.468572
v 5.626488 1.960083 7.465647
v 3.869498 1.160163 6.763524
v 3.871835 2.093846 6.767448
v 3.422093 1.137981 4.936668
v 3.422941 2.073054 4.942096
v 4.507093 2.047420 3.418790
v 4.181528 3.041864 5.096467
v 4.837049 3.021456 4.128860
v 4.482916 3.057655 6.225905
v 5.451055 3.492357 5.292907
v 5.555524 3.061469 6.645483
v 6.532958 3.040311 6.014160
v 6.672003 3.009092 4.847343
v 5.927156 3.003774 4.019010
v -4.962426 0.799997 4.780313
v -5.378315 0.799997 5.778521
v -4.907502 0.799997 6.769310
v -3.847182 0.799997 6.976293
v -3.066817 0.799997 6.223822
v -3.169416 0.799997 5.126474
v -4.003972 0.799997 4.494946
v -3.959809 1.104301 4.127977
v -3.965096 1.757846 4.131829
v -5.179188 1.096454 4.492748
v -2.886298 1.102605 4.938703
v -2.895631 1.873739 4.942319
v -2.735889 1.106995 6.358529
v -2.744226 1.864704 6.361265
v -3.746066 1.099662 7.342632
v -3.750359 1.737283 7.344824
v -5.129469 1.096913 7.070235
v -5.129459 1.734463 7.072005
v -5.725167 1.092968 5.779063
v -5.722353 1.852562 5.781234
v -5.178354 1.858654 4.495748
v -5.150832 2.635404 5.787146
v -4.823911 2.641552 4.978189
v -4.768483 2.633138 6.585159
v -4.202838 3.019413 5.762184
v -3.927580 2.636651 6.752256
v -3.306596 2.644865 6.148335
v -3.381496 2.648851 5.260862
v -4.050693 2.647748 4.746532
v 4.198178 0.799997 -7.389600
v 3.420364 0.799997 -6.638343
v 3.459412 0.799997 -5.542075
v 4.350572 0.799997 -4.931376
v 5.365442 0.799997 -5.312452
v 5.706663 0.799997 -6.360434
v 5.191185 0.799997 -7.271254
v 5.377326 1.104301 -7.590579
v 5.370946 1.757846 -7.589140
v 4.113307 1.096454 -7.739567
v 6.041046 1.102605 -6.420459
v 6.031043 1.873739 -6.420842
v 5.615758 1.106995 -5.057499
v 5.607020 1.864704 -5.058296
v 4.298034 1.099662 -4.554987
v 4.293223 1.737283 -4.554678
v 3.136266 1.096913 -5.353922
v 3.135573 1.734463 -5.352293
v 3.101768 1.092968 -6.775467
v 3.103490 1.852562 -6.772358
v 4.112883 1.858654 -7.736483
v 3.625753 2.635404 -6.540167
v 4.246811 2.641552 -7.153008
v 3.660086 2.633138 -5.655951
v 4.505836 3.019413 -6.186941
v 4.365664 2.636651 -5.168922
v 5.175296 2.644865 -5.476881
v 5.458670 2.648851 -6.321225
v 5.048477 2.647748 -7.058857
vt 0.289465 0.381035
vt 0.289465 0.368965
vt 0.269398 0.368965
vt 0.269398 0.381035
vt 0.269398 0.381035
vt 0.269398 0.368965
vt 0.329609 0.380852
vt 0.329609 0.368847
vt 0.329609 0.368847
vt 0.329609 0.380852
vt 0.289465 0.337715
vt 0.269398 0.337715
vt 0.269398 0.337715
vt 0.289465 0.337715
vt 0.309533 0.381035
vt 0.309533 0.368965
vt 0.329600 0.368965
vt 0.329600 0.381035
vt 0.269398 0.381035
vt 0.269398 0.368965
vt 0.289465 0.368965
vt 0.289465 0.381035
vt 0.664465 0.631035
vt 0.664465 0.618965
vt 0.684533 0.618965
vt 0.684533 0.631035
vt 0.329600 0.337715
vt 0.309533 0.337715
vt 0.309533 0.337715
vt 0.329600 0.337715
vt 0.329600 0.381035
vt 0.329600 0.368965
vt 0.309533 0.368965
vt 0.309533 0.381035
vt 0.684533 0.631035
vt 0.684533 0.618965
vt 0.664465 0.618965
vt 0.664465 0.631035
vt 0.309533 0.337715
vt 0.289465 0.337715
vt 0.329600 0.337715
vt 0.329600 0.337715
vt 0.269398 0.337715
vt 0.269398 0.337715
vt 0.329609 0.380852
vt 0.329609 0.368847
vt 0.329609 0.368847
vt 0.329609 0.380852
vt 0.269398 0.381035
vt 0.269398 0.368965
vt 0.704609 0.630852
vt 0.704609 0.618847
vt 0.704609 0.618847
vt 0.704609 0.630852
vt 0.644398 0.631035
vt 0.644398 0.631035
vt 0.644398 0.618965
vt 0.644398 0.618965
vt 0.664465 0.631035
vt 0.684533 0.631035
vt 0.651087 0.631035
vt 0.651087 0.631035
vt 0.664465 0.631035
vt 0.684533 0.631035
vt 0.697911 0.631035
vt 0.704600 0.631035
vt 0.704600 0.631035
vt 0.697911 0.631035
vt 0.692791 0.631035
vt 0.692791 0.631035
vt 0.663447 0.631035
vt 0.686060 0.631035
vt 0.656206 0.631035
vt 0.656206 0.631035
vt 0.662938 0.631035
vt 0.685551 0.631035
vt 0.658588 0.631035
vt 0.688451 0.631035
vt 0.660547 0.631035
vt 0.690410 0.631035
vt 0.313133 0.381035
vt 0.310551 0.381035
vt 0.309533 0.381035
vt 0.313942 0.381035
vt 0.313451 0.381035
vt 0.319196 0.381035
vt 0.322911 0.381035
vt 0.317791 0.381035
vt 0.316047 0.381035
vt 0.275732 0.381035
vt 0.281206 0.381035
vt 0.276087 0.381035
vt 0.279802 0.381035
vt 0.285547 0.381035
vt 0.285055 0.381035
vt 0.289465 0.381035
vt 0.288447 0.381035
vt 0.282951 0.381035
vt 0.313942 0.381035
vt 0.309533 0.381035
vt 0.310551 0.381035
vt 0.316047 0.381035
vt 0.313451 0.381035
vt 0.323266 0.381035
vt 0.317791 0.381035
vt 0.322911 0.381035
vt 0.319196 0.381035
vt 0.279802 0.381035
vt 0.276087 0.381035
vt 0.281206 0.381035
vt 0.282951 0.381035
vt 0.285547 0.381035
vt 0.285865 0.381035
vt 0.288447 0.381035
vt 0.289465 0.381035
vt 0.285055 0.381035
vt 0.285865 0.381035
vt 0.323266 0.381035
vt 0.329600 0.381035
vt 0.326000 0.381035
vt 0.329600 0.381035
vt 0.272998 0.381035
vt 0.275732 0.381035
vt 0.313133 0.381035
vt 0.294109 0.376841
vt 0.302931 0.367775
vt 0.303773 0.375548
vt 0.293192 0.386419
vt 0.311793 0.367960
vt 0.304744 0.377781
vt 0.306063 0.387603
vt 0.314584 0.375664
vt 0.294506 0.385827
vt 0.293471 0.397499
vt 0.289933 0.385139
vt 0.287981 0.396572
vt 0.310518 0.363946
vt 0.312878 0.370947
vt 0.288804 0.412935
vt 0.294015 0.402783
vt 0.297875 0.421469
vt 0.294733 0.427845
vt 0.294294 0.413863
vt 0.298318 0.428316
vt 0.306885 0.403967
vt 0.306143 0.422167
vt 0.315406 0.392029
vt 0.311629 0.414567
vt 0.313700 0.387312
vt 0.310748 0.411351
vt 0.304596 0.391913
vt 0.304797 0.414350
vt 0.303950 0.454081
vt 0.282522 0.383258
vt 0.287716 0.391764
vt 0.287182 0.403326
vt 0.280714 0.392758
vt 0.293057 0.394587
vt 0.293775 0.406887
vt 0.280164 0.403700
vt 0.286629 0.414248
vt 0.293190 0.417776
vt 0.278368 0.393479
vt 0.278927 0.382659
vt 0.281207 0.375130
vt 0.283341 0.391199
vt 0.283924 0.380447
vt 0.285212 0.373446
vt 0.291314 0.399217
vt 0.291905 0.388496
vt 0.291502 0.379872
vt 0.295530 0.411293
vt 0.296126 0.400502
vt 0.294894 0.389422
vt 0.288577 0.419050
vt 0.291255 0.426381
vt 0.289934 0.430456
vt 0.285533 0.454687
vt 0.285816 0.428375
vt 0.283785 0.414179
vt 0.280755 0.415515
vt 0.281779 0.421817
vt 0.292326 0.296606
vt 0.296839 0.296617
vt 0.296406 0.306777
vt 0.290785 0.306821
vt 0.302593 0.296707
vt 0.303495 0.306899
vt 0.290810 0.318409
vt 0.296409 0.318380
vt 0.303464 0.318512
vt 0.290772 0.318164
vt 0.290755 0.306703
vt 0.292389 0.296455
vt 0.297094 0.317893
vt 0.297097 0.306459
vt 0.297438 0.296290
vt 0.304775 0.318157
vt 0.304799 0.306721
vt 0.303530 0.296476
vt 0.307369 0.318561
vt 0.307409 0.307023
vt 0.305681 0.296736
vt 0.302327 0.337219
vt 0.303997 0.337403
vt 0.301664 0.337404
vt 0.298653 0.370276
vt 0.297235 0.337343
vt 0.297719 0.337090
vt 0.293881 0.337193
vt 0.293788 0.337310
vt 0.292326 0.296606
vt 0.296839 0.296617
vt 0.296406 0.306777
vt 0.290785 0.306821
vt 0.302593 0.296707
vt 0.303495 0.306899
vt 0.290810 0.318409
vt 0.296409 0.318380
vt 0.303464 0.318512
vt 0.290772 0.318164
vt 0.290755 0.306703
vt 0.292389 0.296455
vt 0.297094 0.317893
vt 0.297097 0.306459
vt 0.297438 0.296290
vt 0.304775 0.318157
vt 0.304799 0.306721
vt 0.303530 0.296476
vt 0.307369 0.318561
vt 0.307409 0.307023
vt 0.305681 0.296736
vt 0.302327 0.337219
vt 0.303997 0.337403
vt 0.301664 0.337404
vt 0.298653 0.370276
vt 0.297235 0.337343
vt 0.297719 0.337090
vt 0.293881 0.337193
vt 0.293788 0.337310
vn 0.0000 0.0000 1.0000
vn 1.0000 0.0000 0.0000
vn -1.0000 0.0000 0.0000
vn 0.0000 -1.0000 0.0000
vn 0.0000 0.0000 -1.0000
vn 0.0000 1.0000 -0.0000
vn 0.2794 -0.9337 -0.2238
vn -0.1251 -0.9429 -0.3088
vn -0.1285 -0.9422 -0.3095
vn 0.2682 -0.9365 -0.2261
vn -0.5536 -0.8014 0.2264
vn -0.1571 -0.7769 0.6098
vn -0.1753 -0.7777 0.6037
vn -0.5584 -0.8021 0.2118
vn 0.3726 -0.7733 0.5129
vn 0.3866 -0.7739 0.5017
vn 0.5509 -0.8320 0.0664
vn 0.5495 -0.8333 0.0611
vn -0.4825 -0.8512 -0.2066
vn -0.4789 -0.8524 -0.2099
vn 0.9319 0.3607 -0.0393
vn 0.5800 0.2723 -0.7678
vn 0.3620 0.7809 -0.5091
vn 0.5569 0.8294 -0.0435
vn 0.5662 0.3696 0.7367
vn 0.3221 0.8445 0.4279
vn -0.2640 0.3669 0.8920
vn -0.1512 0.8429 0.5164
vn -0.8799 0.3552 0.3157
vn -0.5160 0.8371 0.1814
vn -0.7983 0.3394 -0.4976
vn -0.4845 0.8138 -0.3209
vn -0.1660 0.2652 -0.9498
vn -0.0930 0.7768 -0.6229
vn -0.0069 0.9998 -0.0192
vn 0.2477 -0.0184 -0.9687
vn 0.8827 -0.0027 -0.4700
vn 0.8987 0.0134 0.4383
vn 0.1838 0.0183 0.9828
vn -0.6796 0.0086 0.7335
vn -0.9928 -0.0085 -0.1196
vn -0.5833 -0.0199 -0.8120
vn 0.5342 -0.8327 -0.1458
vn 0.1932 -0.8513 -0.4878
vn 0.1841 -0.8512 -0.4914
vn 0.5263 -0.8340 -0.1656
vn -0.2965 -0.8305 -0.4715
vn -0.2798 -0.8318 -0.4795
vn 0.9032 0.3061 -0.3009
vn 0.7449 0.0029 -0.6672
vn 0.3458 0.3105 -0.8854
vn -0.0947 0.0006 -0.9955
vn -0.4694 0.3097 -0.8269
vn 0.8074 0.3164 0.4980
vn 0.9947 0.0072 0.1024
vn 0.4875 -0.8121 0.3206
vn 0.4868 -0.8121 0.3217
vn 0.0935 0.2908 0.9522
vn 0.5413 0.0058 0.8408
vn 0.0519 -0.8072 0.5879
vn 0.0523 -0.8072 0.5879
vn -0.3430 0.2853 0.8950
vn -0.3712 0.0004 0.9285
vn -0.4413 -0.8099 0.3864
vn -0.4354 -0.8098 0.3933
vn -0.9346 0.3068 -0.1798
vn -0.9712 0.0005 0.2383
vn -0.9321 0.2811 0.2284
vn -0.5757 -0.8113 -0.1017
vn -0.5763 -0.8112 -0.0989
vn -0.8143 0.0026 -0.5805
vn -0.4569 0.7891 0.4105
vn -0.6128 0.7813 -0.1186
vn -0.3134 0.7807 -0.5407
vn 0.0082 0.9998 -0.0178
vn 0.2305 0.7823 -0.5787
vn 0.0666 0.7820 0.6196
vn 0.5339 0.7815 0.3228
vn 0.5990 0.7753 -0.2002
vn 0.5847 -0.7478 -0.3146
vn 0.1264 -0.7731 -0.6216
vn 0.1084 -0.7737 -0.6242
vn 0.5744 -0.7483 -0.3318
vn -0.4340 -0.7717 -0.4649
vn -0.4141 -0.7724 -0.4816
vn 0.8253 0.3032 -0.4764
vn 0.6029 0.0104 -0.7977
vn 0.1670 0.2781 -0.9459
vn -0.2868 0.0037 -0.9580
vn -0.6290 0.3015 -0.7166
vn 0.8930 0.3017 0.3340
vn 0.9943 0.0119 -0.1057
vn 0.6158 -0.7583 0.2140
vn 0.6116 -0.7587 0.2242
vn 0.2663 0.2720 0.9247
vn 0.6983 0.0038 0.7158
vn 0.1843 -0.7822 0.5951
vn 0.1789 -0.7823 0.5966
vn -0.5901 0.2665 0.7621
vn -0.1936 -0.0037 0.9811
vn -0.3897 -0.7804 0.4890
vn -0.3821 -0.7806 0.4947
vn -0.9566 0.2904 0.0228
vn -0.9084 0.0007 0.4182
vn -0.6455 -0.7636 0.0137
vn -0.6456 -0.7636 0.0088
vn -0.9207 0.0035 -0.3902
vn -0.4052 0.7433 0.5322
vn -0.6610 0.7497 0.0314
vn -0.4356 0.7625 -0.4783
vn -0.0062 1.0000 0.0052
vn 0.1170 0.7604 -0.6388
vn 0.1729 0.7499 0.6386
vn 0.6034 0.7611 0.2379
vn 0.5659 0.7604 -0.3186
vn 0.6615 -0.7478 -0.0568
vn 0.3626 -0.7731 -0.5204
vn 0.3472 -0.7737 -0.5299
vn 0.6589 -0.7483 -0.0767
vn -0.2139 -0.7717 -0.5989
vn -0.1890 -0.7724 -0.6063
vn 0.9466 0.3032 -0.1099
vn 0.8700 0.0104 -0.4930
vn 0.5286 0.2781 -0.8021
vn 0.1168 0.0037 -0.9931
vn -0.2930 0.3015 -0.9073
vn 0.6872 0.3017 0.6609
vn 0.9546 0.0119 0.2975
vn 0.4803 -0.7583 0.4408
vn 0.4725 -0.7587 0.4484
vn -0.1224 0.2720 0.9545
vn 0.3570 0.0038 0.9341
vn -0.0670 -0.7822 0.6194
vn -0.0725 -0.7823 0.6186
vn -0.8440 0.2665 0.4654
vn -0.5670 -0.0037 0.8237
vn -0.5518 -0.7804 0.2943
vn -0.5470 -0.7806 0.3025
vn -0.8872 0.2904 -0.3586
vn -0.9997 0.0007 0.0235
vn -0.5979 -0.7636 -0.2435
vn -0.5961 -0.7636 -0.2481
vn -0.6903 0.0035 -0.7235
vn -0.5832 0.7433 0.3277
vn -0.6192 0.7497 -0.2334
vn -0.2101 0.7625 -0.6119
vn -0.0077 1.0000 0.0023
vn 0.3609 0.7604 -0.5399
vn -0.0946 0.7499 0.6548
vn 0.4594 0.7611 0.4578
vn 0.6459 0.7604 -0.0679
usemtl citybits_texture
s 1
f 21/1/1 11/2/1 1/3/1 2/4/1
f 25/5/2 2/4/2 1/3/2 16/6/2
f 18/7/3 17/8/3 5/9/3 6/10/3
f 15/11/4 16/12/4 1/13/4 11/14/4
f 19/15/5 9/16/5 7/17/5 8/18/5
f 4/19/5 3/20/5 10/21/5 22/22/5
f 22/23/5 10/24/5 9/25/5 19/26/5
f 17/27/4 15/28/4 12/29/4 5/30/4
f 15/28/4 11/14/4 12/29/4
f 6/31/1 5/32/1 12/33/1 23/34/1
f 23/35/1 12/36/1 11/37/1 21/38/1
f 9/39/4 10/40/4 15/11/4
f 7/41/4 9/39/4 15/28/4 14/42/4
f 10/40/4 3/43/4 13/44/4 15/11/4
f 8/45/3 7/46/3 14/47/3 24/48/3
f 4/19/2 20/49/2 13/50/2 3/20/2
f 14/42/4 15/28/4 17/27/4
f 15/11/4 13/44/4 16/12/4
f 24/51/3 14/52/3 17/53/3 18/54/3
f 20/55/2 25/56/2 16/57/2 13/58/2
f 45/59/6 36/60/6 23/35/6 21/38/6
f 41/61/6 25/56/6 20/55/6 32/62/6
f 34/63/6 22/23/6 19/26/6 27/64/6
f 29/65/6 24/66/6 18/67/6 40/68/6
f 30/69/6 29/65/6 40/68/6 39/70/6
f 35/71/6 34/63/6 27/64/6 26/72/6
f 42/73/6 41/61/6 32/62/6 31/74/6
f 44/75/6 37/76/6 36/60/6 45/59/6
f 43/77/6 38/78/6 37/76/6 44/75/6
f 33/79/6 35/71/6 26/72/6 28/80/6
f 42/73/6 31/74/6 33/79/6 43/77/6
f 38/78/6 28/80/6 30/69/6 39/70/6
f 43/77/6 33/79/6 28/80/6 38/78/6
f 8/81/6 26/82/6 27/83/6
f 8/84/6 28/85/6 26/82/6
f 8/86/6 29/87/6 30/88/6
f 8/89/6 30/88/6 28/85/6
f 4/90/6 31/91/6 32/92/6
f 4/93/6 33/94/6 31/91/6
f 4/95/6 34/96/6 35/97/6
f 4/98/6 35/97/6 33/94/6
f 6/99/6 36/100/6 37/101/6
f 6/102/6 37/101/6 38/103/6
f 6/104/6 39/105/6 40/106/6
f 6/107/6 38/103/6 39/105/6
f 2/108/6 41/109/6 42/110/6
f 2/111/6 42/110/6 43/112/6
f 2/113/6 44/114/6 45/115/6
f 2/116/6 43/112/6 44/114/6
f 8/81/6 27/83/6 19/15/6
f 4/117/6 22/22/6 34/96/6
f 8/118/6 24/119/6 29/87/6
f 6/120/6 40/106/6 18/121/6
f 4/122/6 32/92/6 20/49/6
f 2/123/6 25/5/6 41/109/6
f 6/124/6 23/34/6 36/100/6
f 2/113/6 45/115/6 21/1/6
f 60/125/7 54/126/8 62/127/9 73/128/10
f 56/129/11 57/130/12 67/131/13 65/132/14
f 57/130/12 58/133/15 69/134/16 67/131/13
f 58/133/15 59/135/17 71/136/18 69/134/16
f 59/135/17 60/125/7 73/128/10 71/136/18
f 54/126/8 55/137/19 63/138/20 62/127/9
f 55/137/19 56/129/11 65/132/14 63/138/20
f 72/139/21 74/140/22 53/141/23 52/142/24
f 70/143/25 72/139/21 52/142/24 51/144/26
f 68/145/27 70/143/25 51/144/26 50/146/28
f 66/147/29 68/145/27 50/146/28 49/148/30
f 64/149/31 66/147/29 49/148/30 47/150/32
f 61/151/33 64/149/31 47/150/32 48/152/34
f 46/153/35 48/152/34 47/150/32
f 46/153/35 47/150/32 49/148/30
f 46/153/35 49/148/30 50/146/28
f 46/153/35 50/146/28 51/144/26
f 46/153/35 51/144/26 52/142/24
f 46/153/35 52/142/24 53/141/23
f 46/153/35 53/141/23 48/152/34
f 74/140/22 73/128/36 62/127/36 61/151/33
f 72/139/21 71/136/37 73/128/37 74/140/22
f 70/143/25 69/134/38 71/136/38 72/139/21
f 68/145/27 67/131/39 69/134/39 70/143/25
f 66/147/29 65/132/40 67/131/40 68/145/27
f 64/149/31 63/138/41 65/132/41 66/147/29
f 61/151/33 62/127/42 63/138/42 64/149/31
f 74/140/22 61/151/33 48/152/34 53/141/23
f 80/154/43 81/155/44 82/156/45 85/157/46
f 81/155/44 75/158/47 84/159/48 82/156/45
f 86/160/49 85/157/50 82/156/50 83/161/51
f 83/161/51 82/156/52 84/159/52 95/162/53
f 88/163/54 87/164/55 85/157/55 86/160/49
f 79/165/56 80/154/43 85/157/46 87/164/57
f 90/166/58 89/167/59 87/164/59 88/163/54
f 78/168/60 79/165/56 87/164/57 89/167/61
f 92/169/62 91/170/63 89/167/63 90/166/58
f 77/171/64 78/168/60 89/167/61 91/170/65
f 94/172/66 93/173/67 91/170/67 92/169/68
f 76/174/69 77/171/64 91/170/65 93/173/70
f 95/162/53 84/159/71 93/173/71 94/172/66
f 75/158/47 76/174/69 93/173/70 84/159/48
f 94/172/66 92/169/68 98/175/72 96/176/73
f 95/162/53 94/172/66 96/176/73 97/177/74
f 99/178/75 97/177/74 96/176/73
f 99/178/75 96/176/73 98/175/72
f 99/178/75 103/179/76 97/177/74
f 99/178/75 98/175/72 100/180/77
f 99/178/75 100/180/77 101/181/78
f 99/178/75 101/181/78 102/182/79
f 99/178/75 102/182/79 103/179/76
f 86/160/49 83/161/51 103/179/76 102/182/79
f 83/161/51 95/162/53 97/177/74 103/179/76
f 88/163/54 86/160/49 102/182/79 101/181/78
f 90/166/58 88/163/54 101/181/78 100/180/77
f 92/169/62 90/166/58 100/180/77 98/175/72
f 109/183/80 110/184/81 111/185/82 114/186/83
f 110/184/81 104/187/84 113/188/85 111/185/82
f 115/189/86 114/186/87 111/185/87 112/190/88
f 112/190/88 111/185/89 113/188/89 124/191/90
f 117/192/91 116/193/92 114/186/92 115/189/86
f 108/194/93 109/183/80 114/186/83 116/193/94
f 119/195/95 118/196/96 116/193/96 117/192/91
f 107/197/97 108/194/93 116/193/94 118/196/98
f 121/198/99 120/199/100 118/196/100 119/195/95
f 106/200/101 107/197/97 118/196/98 120/199/102
f 123/201/103 122/202/104 120/199/104 121/198/99
f 105/203/105 106/200/101 120/199/102 122/202/106
f 124/191/90 113/188/107 122/202/107 123/201/103
f 104/187/84 105/203/105 122/202/106 113/188/85
f 123/201/103 121/198/99 127/204/108 125/205/109
f 124/191/90 123/201/103 125/205/109 126/206/110
f 128/207/111 126/206/110 125/205/109
f 128/207/111 125/205/109 127/204/108
f 128/207/111 132/208/112 126/206/110
f 128/207/111 127/204/108 129/209/113
f 128/207/111 129/209/113 130/210/114
f 128/207/111 130/210/114 131/211/115
f 128/207/111 131/211/115 132/208/112
f 115/189/86 112/190/88 132/208/112 131/211/115
f 112/190/88 124/191/90 126/206/110 132/208/112
f 117/192/91 115/189/86 131/211/115 130/210/114
f 119/195/95 117/192/91 130/210/114 129/209/113
f 121/198/99 119/195/95 129/209/113 127/204/108
f 138/212/116 139/213/117 140/214/118 143/215/119
f 139/213/117 133/216/120 142/217/121 140/214/118
f 144/218/122 143/215/123 140/214/123 141/219/124
f 141/219/124 140/214/125 142/217/125 153/220/126
f 146/221/127 145/222/128 143/215/128 144/218/122
f 137/223/129 138/212/116 143/215/119 145/222/130
f 148/224/131 147/225/132 145/222/132 146/221/127
f 136/226/133 137/223/129 145/222/130 147/225/134
f 150/227/135 149/228/136 147/225/136 148/224/131
f 135/229/137 136/226/133 147/225/134 149/228/138
f 152/230/139 151/231/140 149/228/140 150/227/135
f 134/232/141 135/229/137 149/228/138 151/231/142
f 153/220/126 142/217/143 151/231/143 152/230/139
f 133/216/120 134/232/141 151/231/142 142/217/121
f 152/230/139 150/227/135 156/233/144 154/234/145
f 153/220/126 152/230/139 154/234/145 155/235/146
f 157/236/147 155/235/146 154/234/145
f 157/236/147 154/234/145 156/233/144
f 157/236/147 161/237/148 155/235/146
f 157/236/147 156/233/144 158/238/149
f 157/236/147 158/238/149 159/239/150
f 157/236/147 159/239/150 160/240/151
f 157/236/147 160/240/151 161/237/148
f 144/218/122 141/219/124 161/237/148 160/240/151
f 141/219/124 153/220/126 155/235/146 161/237/148
f 146/221/127 144/218/122 160/240/151 159/239/150
f 148/224/131 146/221/127 159/239/150 158/238/149
f 150/227/135 148/224/131 158/238/149 156/233/144
