# Blender v3.5.0 OBJ File: 'CityBits_SOURCE.blend'
# www.blender.org
mtllib road_corner_curved.mtl
o road_corner_curved_Cube.947
v -8.000000 0.000000 8.000000
v -8.000000 0.560000 8.000000
v -8.000000 0.000000 -8.000000
v -8.000000 0.560000 -8.000000
v 8.000000 0.000000 8.000000
v 8.000000 0.560000 8.000000
v 8.000000 0.000000 -8.000000
v 8.000000 0.560000 -8.000000
v 7.200000 0.000000 -8.000000
v -7.200000 0.000000 -8.000000
v -7.200000 0.560000 -8.000000
v 7.200000 0.560000 -8.000000
v -7.200000 0.000000 8.000000
v 7.200000 0.000000 8.000000
v 7.200000 0.560000 8.000000
v -7.200000 0.560000 8.000000
v -8.000000 0.000000 -7.200000
v -8.000000 0.000000 7.200000
v -8.000000 0.560000 7.200000
v -8.000000 0.560000 -7.200000
v 8.000000 0.000000 7.200000
v 8.000000 0.000000 -7.200000
v 8.000000 0.560000 -7.200000
v 8.000000 0.560000 7.200000
v 7.200000 0.560000 -7.200000
v 7.200000 0.560000 7.200000
v -7.200000 0.560000 7.200000
v -7.200000 0.000000 -7.200000
v -7.200000 0.000000 7.200000
v 7.200000 0.000000 -7.200000
v 7.200000 0.000000 7.200000
v -8.000000 0.800000 -8.000000
v 8.000000 0.800000 -8.000000
v 8.000000 0.800000 8.000000
v -8.000000 0.800000 8.000000
v 7.200000 0.800000 -8.000000
v 7.440000 0.800000 8.000000
v -7.440000 0.800000 8.000000
v -8.000000 0.800000 7.200000
v 8.000000 0.800000 -7.440000
v 8.000000 0.800000 7.440000
v 7.200000 0.800000 -7.440000
v 7.440000 0.800000 7.440000
v -7.440000 0.800000 7.200000
v 3.608984 0.560000 -7.200000
v -7.200000 0.560000 3.608983
v 1.203758 0.560000 -6.928997
v -1.080859 0.560000 -6.129574
v -3.130308 0.560000 -4.841821
v -4.841820 0.560000 -3.130308
v -6.129574 0.560000 -1.080859
v -6.928997 0.560000 1.203758
v -7.440000 0.800000 3.368984
v 3.368983 0.800000 -7.440000
v -7.200000 0.800000 -7.999600
v -7.999600 0.800000 -7.200000
v -7.168996 0.800000 0.963758
v -6.369574 0.800000 -1.320859
v -5.081821 0.800000 -3.370308
v -3.370308 0.800000 -5.081820
v -1.320859 0.800000 -6.369574
v 0.963758 0.800000 -7.168996
v 4.640000 0.584003 6.979335
v 4.960000 0.584003 8.000000
v 4.640000 0.584003 8.000000
v 6.979335 0.584003 4.640000
v 8.000000 0.584003 4.960001
v 8.000000 0.584003 4.640001
v 7.200000 0.584003 4.960000
v 4.960000 0.584003 7.200000
v 6.293739 0.584003 5.081460
v 5.549807 0.584003 5.549807
v 5.081460 0.584003 6.293739
v 4.818071 0.584003 6.084110
v 5.325175 0.584003 5.325175
v 6.084110 0.584003 4.818071
v -4.640000 0.584003 8.000000
v -4.960000 0.584003 8.000000
v 8.000000 0.584003 -4.960000
v 8.000000 0.584003 -4.639999
v 4.128071 0.584003 -4.639999
v -4.640000 0.584003 4.128086
v 2.176991 0.584003 -4.420165
v 0.323747 0.584003 -3.771685
v -1.338732 0.584003 -2.727079
v -2.727083 0.584003 -1.338726
v -3.771688 0.584003 0.323756
v -4.420166 0.584003 2.177003
v -4.960000 0.584003 3.808084
v 3.808086 0.584003 -4.960000
v -4.740166 0.584003 1.857002
v -4.091686 0.584003 0.003755
v -3.047080 0.584003 -1.658727
v -1.658727 0.584003 -3.047080
v 0.003756 0.584003 -4.091686
v 1.857003 0.584003 -4.740165
v 0.160000 0.584003 4.000000
v -0.160000 0.584003 4.000000
v -0.160000 0.584003 5.600000
v 0.160000 0.584003 5.600000
v 0.160000 0.584003 7.200000
v -0.160000 0.584003 7.200000
v 7.200000 0.584003 -0.160000
v 7.200000 0.584003 0.160001
v 5.600000 0.584003 0.160000
v 5.600000 0.584003 -0.160000
v 4.000000 0.584003 -0.160000
v 4.000000 0.584003 0.160000
v 3.200000 0.584003 0.160000
v 3.200000 0.584003 -0.160000
v 0.160000 0.584003 3.200000
v -0.160000 0.584003 3.200000
v -0.058746 0.584003 2.469341
v 0.200968 0.584003 1.770374
v 0.599656 0.584003 1.131685
v 1.131684 0.584003 0.599656
v 1.770374 0.584003 0.200968
v 2.469341 0.584003 -0.058746
v 2.511406 0.584003 0.224089
v 1.863446 0.584003 0.443507
v 1.277982 0.584003 0.796624
v 0.796624 0.584003 1.277982
v 0.443508 0.584003 1.863446
v 0.224089 0.584003 2.511406
vt 0.341823 0.791153
vt 0.345504 0.791153
vt 0.345504 0.791153
vt 0.341823 0.791153
vt 0.308694 0.825770
vt 0.308694 0.825770
vt 0.308694 0.811717
vt 0.308694 0.811717
vt 0.308694 0.825770
vt 0.312375 0.825770
vt 0.312375 0.811717
vt 0.308694 0.811717
vt 0.308694 0.863281
vt 0.308696 0.863281
vt 0.312375 0.863281
vt 0.312375 0.825770
vt 0.312375 0.825770
vt 0.312375 0.832031
vt 0.312375 0.832031
vt 0.308694 0.832031
vt 0.308694 0.832031
vt 0.312375 0.811717
vt 0.312375 0.811717
vt 0.312375 0.811717
vt 0.308694 0.811717
vt 0.341823 0.811717
vt 0.341823 0.825770
vt 0.345504 0.825770
vt 0.345504 0.811717
vt 0.341823 0.791153
vt 0.312375 0.791153
vt 0.312375 0.780467
vt 0.341823 0.780467
vt 0.308694 0.832031
vt 0.312375 0.832031
vt 0.341823 0.811717
vt 0.345504 0.811717
vt 0.345504 0.811717
vt 0.341823 0.811717
vt 0.345504 0.825770
vt 0.341823 0.825770
vt 0.341823 0.832031
vt 0.345504 0.832031
vt 0.341823 0.780467
vt 0.341823 0.780467
vt 0.312375 0.780467
vt 0.312375 0.780467
vt 0.341823 0.811717
vt 0.345504 0.780467
vt 0.345504 0.780467
vt 0.345504 0.811717
vt 0.345504 0.832031
vt 0.345504 0.832031
vt 0.345504 0.825770
vt 0.345504 0.825770
vt 0.345504 0.832031
vt 0.341823 0.832031
vt 0.341823 0.825770
vt 0.308694 0.832031
vt 0.308694 0.825770
vt 0.312375 0.832031
vt 0.312375 0.825770
vt 0.334479 0.825770
vt 0.341823 0.825770
vt 0.341823 0.832031
vt 0.334479 0.832031
vt 0.312375 0.791153
vt 0.341823 0.832031
vt 0.341823 0.863281
vt 0.345504 0.863281
vt 0.345504 0.863281
vt 0.341823 0.863281
vt 0.308694 0.863281
vt 0.312375 0.863281
vt 0.312375 0.863281
vt 0.334479 0.863281
vt 0.308694 0.863281
vt 0.312375 0.863281
vt 0.345504 0.863281
vt 0.341823 0.863281
vt 0.341823 0.863281
vt 0.345504 0.863281
vt 0.312375 0.863281
vt 0.312375 0.863281
vt 0.329561 0.832031
vt 0.329561 0.825770
vt 0.324889 0.832031
vt 0.324889 0.825770
vt 0.320698 0.832031
vt 0.320698 0.825770
vt 0.312375 0.832031
vt 0.312375 0.825770
vt 0.312375 0.832031
vt 0.312375 0.825770
vt 0.312375 0.832031
vt 0.312375 0.825770
vt 0.312375 0.791153
vt 0.431174 0.666153
vt 0.431174 0.666153
vt 0.419574 0.666153
vt 0.419574 0.666153
vt 0.431174 0.666153
vt 0.431174 0.666153
vt 0.419574 0.666153
vt 0.419574 0.666153
vt 0.439335 0.666153
vt 0.427988 0.666153
vt 0.431174 0.666153
vt 0.431174 0.666153
vt 0.439335 0.666153
vt 0.427988 0.666153
vt 0.446868 0.666153
vt 0.446868 0.666153
vt 0.446868 0.666153
vt 0.446868 0.666153
vt 0.446868 0.666153
vt 0.446868 0.666153
vt 0.446868 0.666153
vt 0.446868 0.666153
vt 0.446868 0.666153
vt 0.446868 0.666153
vt 0.446868 0.666153
vt 0.446868 0.666153
vt 0.446868 0.666153
vt 0.446868 0.666153
vt 0.446868 0.666153
vt 0.446868 0.666153
vt 0.446868 0.666153
vt 0.446868 0.666153
vt 0.446868 0.666153
vt 0.446868 0.666153
vt 0.186332 0.916153
vt 0.186332 0.916153
vt 0.186332 0.916153
vt 0.186332 0.916153
vt 0.186332 0.916153
vt 0.186332 0.916153
vt 0.186332 0.916153
vt 0.186332 0.916153
vt 0.186332 0.916153
vt 0.186332 0.916153
vt 0.186332 0.916153
vt 0.186332 0.916153
vt 0.186332 0.916153
vt 0.186332 0.916153
vt 0.186332 0.916153
vt 0.186332 0.916153
vt 0.186332 0.916153
vt 0.186332 0.916153
vt 0.186332 0.916153
vt 0.186332 0.916153
vt 0.186332 0.916153
vt 0.186332 0.916153
vt 0.186332 0.916153
vt 0.186332 0.916153
vt 0.186332 0.916153
vt 0.186332 0.916153
vt 0.186332 0.916153
vt 0.186332 0.916153
vt 0.313622 0.863281
vt 0.317300 0.863282
vt 0.312375 0.863281
vt 0.312375 0.863281
vt 0.312375 0.863281
vt 0.334479 0.791153
vt 0.329561 0.791153
vt 0.324889 0.791153
vt 0.320698 0.791153
vt 0.317198 0.791153
vt 0.314564 0.791153
vt 0.312929 0.791153
vn 0.0000 1.0000 0.0000
vn -1.0000 0.0000 0.0000
vn -1.0000 0.0002 -0.0000
vn 0.0001 0.0004 -1.0000
vn 0.0000 0.0000 -1.0000
vn 0.7071 0.7071 0.0000
vn -1.0000 0.0004 -0.0000
vn 0.0000 -1.0000 0.0000
vn -0.0000 0.0002 -1.0000
vn 0.0000 0.0000 1.0000
vn 0.0003 0.0008 -1.0000
vn 0.0001 0.0008 -1.0000
vn 0.0000 0.7071 -0.7071
vn 1.0000 0.0000 0.0000
vn -1.0000 0.0008 0.0001
vn -1.0000 0.0004 0.0001
vn 0.6798 0.7315 0.0517
vn 0.6947 0.7189 0.0242
vn -1.0000 0.0008 0.0003
vn 0.0242 0.7189 0.6947
vn 0.0000 0.7071 0.7071
vn 0.0517 0.7315 0.6798
vn -0.7071 0.7071 0.0000
vn -0.0000 0.0004 -1.0000
vn 0.1594 0.7732 0.6138
vn 0.1225 0.7603 0.6379
vn 0.2688 0.8021 0.5333
vn 0.2498 0.7981 0.5483
vn 0.3640 0.8150 0.4509
vn 0.3584 0.8145 0.4561
vn 0.4509 0.8150 0.3640
vn 0.4561 0.8145 0.3584
vn 0.5333 0.8021 0.2688
vn 0.5483 0.7981 0.2498
vn 0.6138 0.7732 0.1594
vn 0.6379 0.7603 0.1225
usemtl citybits_texture
s 1
f 26/1/1 24/2/1 23/3/1 25/4/1
f 2/5/2 19/6/3 18/7/2 1/8/2
f 4/9/4 11/10/4 10/11/5 3/12/5
f 32/13/1 56/14/1 55/15/1
f 16/16/6 27/17/6 44/18/6 38/19/6
f 2/5/2 35/20/2 39/21/7 19/6/3
f 18/7/8 29/22/8 13/23/8 1/8/8
f 10/11/8 28/24/8 17/25/8 3/12/8
f 9/26/5 12/27/9 8/28/5 7/29/5
f 15/30/10 16/31/10 13/32/10 14/33/10
f 11/10/4 4/9/4 32/34/11 55/35/12
f 11/10/4 12/27/9 9/26/5 10/11/5
f 31/36/8 21/37/8 5/38/8 14/39/8
f 24/40/13 26/41/13 43/42/13 41/43/13
f 30/44/8 31/45/8 29/46/8 28/47/8
f 29/46/8 31/45/8 14/33/8 13/32/8
f 9/26/8 30/48/8 28/24/8 10/11/8
f 28/24/8 29/22/8 18/7/8 17/25/8
f 21/49/8 31/45/8 30/44/8 22/50/8
f 7/29/8 22/51/8 30/48/8 9/26/8
f 8/28/14 33/52/14 40/53/14 23/54/14
f 6/55/10 34/56/10 37/57/10 15/58/10
f 19/6/3 39/21/7 56/59/15 20/60/16
f 53/61/17 44/18/6 27/17/6 46/62/18
f 4/9/16 20/60/16 56/59/15 32/34/19
f 45/63/20 25/64/21 42/65/21 54/66/22
f 26/1/1 27/67/1 16/31/1 15/30/1
f 15/58/23 37/57/23 43/42/23 26/41/23
f 6/55/14 24/40/14 41/43/14 34/56/14
f 25/64/21 23/54/21 40/53/21 42/65/21
f 8/28/5 12/27/9 36/68/24 33/52/5
f 2/5/10 16/16/10 38/19/10 35/20/10
f 42/69/1 40/70/1 33/71/1 36/72/1
f 11/10/4 55/35/12 36/68/24 12/27/9
f 23/3/14 24/2/14 21/49/14 22/50/14
f 21/37/14 24/40/14 6/55/14 5/38/14
f 19/6/3 20/60/16 17/25/2 18/7/2
f 17/25/2 20/60/16 4/9/16 3/12/2
f 13/23/10 16/16/10 2/5/10 1/8/10
f 39/73/1 44/74/1 53/75/1 56/14/1
f 55/15/1 54/76/1 42/69/1 36/72/1
f 44/74/1 39/73/1 35/77/1 38/78/1
f 41/79/1 43/80/1 37/81/1 34/82/1
f 6/55/10 15/58/10 14/39/10 5/38/10
f 8/28/14 23/54/14 22/51/14 7/29/14
f 55/15/1 62/83/1 54/84/1
f 45/63/20 54/66/22 62/85/25 47/86/26
f 47/86/26 62/85/25 61/87/27 48/88/28
f 48/88/28 61/87/27 60/89/29 49/90/30
f 49/90/30 60/89/29 59/91/31 50/92/32
f 50/92/32 59/91/31 58/93/33 51/94/34
f 51/94/34 58/93/33 57/95/35 52/96/36
f 52/96/36 57/95/35 53/61/17 46/62/18
f 46/97/1 27/67/1 26/1/1
f 64/98/1 70/99/1 63/100/1 65/101/1
f 69/102/1 67/103/1 68/104/1 66/105/1
f 63/100/1 70/99/1 73/106/1 74/107/1
f 74/107/1 73/106/1 72/108/1 75/109/1
f 75/109/1 72/108/1 71/110/1 76/111/1
f 76/111/1 71/110/1 69/102/1 66/105/1
f 77/112/1 82/113/1 89/114/1 78/115/1
f 81/116/1 90/117/1 96/118/1 83/119/1
f 83/119/1 96/118/1 95/120/1 84/121/1
f 84/121/1 95/120/1 94/122/1 85/123/1
f 85/123/1 94/122/1 93/124/1 86/125/1
f 86/125/1 93/124/1 92/126/1 87/127/1
f 87/127/1 92/126/1 91/128/1 88/129/1
f 88/129/1 91/128/1 89/114/1 82/113/1
f 81/116/1 80/130/1 79/131/1 90/117/1
f 101/132/1 100/133/1 99/134/1 102/135/1
f 105/136/1 104/137/1 103/138/1 106/139/1
f 109/140/1 108/141/1 107/142/1 110/143/1
f 97/144/1 111/145/1 112/146/1 98/147/1
f 109/140/1 110/143/1 118/148/1 119/149/1
f 119/149/1 118/148/1 117/150/1 120/151/1
f 120/151/1 117/150/1 116/152/1 121/153/1
f 121/153/1 116/152/1 115/154/1 122/155/1
f 122/155/1 115/154/1 114/156/1 123/157/1
f 123/157/1 114/156/1 113/158/1 124/159/1
f 124/159/1 113/158/1 112/146/1 111/145/1
f 53/75/1 57/160/1 56/14/1
f 57/160/1 58/161/1 56/14/1
f 58/161/1 59/162/1 56/14/1
f 59/162/1 60/163/1 55/15/1 56/14/1
f 61/164/1 62/83/1 55/15/1
f 60/163/1 61/164/1 55/15/1
f 25/4/1 45/165/1 26/1/1
f 45/165/1 47/166/1 26/1/1
f 47/166/1 48/167/1 26/1/1
f 48/167/1 49/168/1 26/1/1
f 49/168/1 50/169/1 26/1/1
f 50/169/1 51/170/1 26/1/1
f 51/170/1 52/171/1 26/1/1
f 52/171/1 46/97/1 26/1/1
