# Blender v3.5.0 OBJ File: 'CityBits_SOURCE.blend'
# www.blender.org
mtllib tree_B.mtl
o tree_B_Cube.14213
v -0.624434 0.047970 -0.508193
v 1.932266 3.249622 -0.445873
v 0.504848 -0.017777 -0.489612
v 2.196384 2.880664 -0.585496
v -0.626430 0.050429 0.508209
v 2.424736 3.099751 0.011267
v 0.488444 -0.016928 0.489627
v 2.638608 3.006610 -0.226578
v -0.355806 1.064075 -0.306005
v 0.711260 2.318950 -0.229586
v 1.043810 2.141237 -0.452967
v 0.377516 0.911541 -0.427144
v 1.658356 2.242385 -0.040838
v 0.803034 1.412201 0.266300
v 1.366775 2.385660 0.208803
v 0.113739 1.635806 0.480737
v 2.463685 3.551945 -0.215288
v 2.685083 3.436277 -0.428137
v 3.124763 3.854136 0.456746
v 2.133365 4.660868 -0.920728
v 2.430399 3.300311 -0.763779
v 3.856228 5.656849 -0.563990
v 3.428900 8.694003 -0.658532
v 3.459857 8.223900 0.791897
v 4.632502 8.212637 0.235887
v 2.248599 8.257030 0.315523
v 1.919251 8.305874 -0.950577
v 2.858774 8.273088 -1.997607
v 4.242025 8.217978 -1.971703
v 4.962485 8.218073 -0.963694
v 5.241424 6.023441 0.533242
v 3.709671 5.985066 1.186489
v 2.144252 5.992638 0.592544
v 1.710705 6.039237 -1.005964
v 3.049801 5.864027 -2.276295
v 4.686646 5.987143 -2.281437
v 5.675631 6.033992 -0.946203
v 5.304291 7.369665 0.716933
v 5.403966 6.557173 0.734225
v 3.604939 6.511015 1.596261
v 3.530873 7.342804 1.592571
v 1.647043 6.566884 0.885574
v 1.601675 7.388970 0.895691
v 1.087621 6.647859 -1.120426
v 1.026411 7.476765 -1.118128
v 2.672414 6.496617 -2.792299
v 2.556443 7.426134 -2.814339
v 4.932094 6.469347 -2.686797
v 4.783725 7.322693 -2.727438
v 6.065037 6.551903 -1.039079
v 5.919706 7.365954 -1.079629
v 1.621283 4.197385 0.978183
v 2.949204 4.506949 1.847480
v 1.869167 4.456293 2.457897
v 0.382526 4.570560 1.856371
v -0.182341 4.685626 0.563292
v 0.478483 4.730709 -0.563257
v 1.926466 4.620005 -0.532519
v 3.123437 4.466273 0.654896
v 2.575544 6.574039 0.550420
v 1.703733 6.705598 -0.307409
v 0.609695 6.755963 -0.255938
v 0.098501 6.704577 0.662331
v 0.567721 6.578914 1.704738
v 1.653814 6.516752 2.094173
v 2.554632 6.527268 1.604815
v 1.388318 6.992170 0.871181
v 5.054901 4.230031 0.718169
v 6.194909 4.538892 -0.287469
v 6.483051 4.545998 1.011344
v 5.699402 4.521299 2.109809
v 4.371028 4.494056 2.131678
v 3.588246 4.494489 1.051939
v 3.949227 4.507004 -0.255079
v 5.096163 4.519351 -0.839847
v 5.049899 6.748263 -0.530160
v 4.129268 6.730892 -0.051891
v 3.847232 6.722607 1.006259
v 4.468480 6.728250 1.871137
v 5.521970 6.746826 1.850232
v 6.156667 6.761155 0.966708
v 5.935454 6.761112 -0.083064
v 5.004860 7.207692 0.730831
v 3.601295 3.401038 -1.506887
v 3.230414 6.621894 -1.548793
v 4.735146 6.137837 -0.517323
v 5.110541 6.128243 -1.846658
v 3.350640 6.132842 0.097389
v 1.776467 6.291225 -0.526499
v 1.415329 6.252610 -1.991333
v 2.452063 6.183526 -3.044151
v 4.072827 6.115012 -2.920594
v 5.729626 3.788342 -1.855497
v 5.193164 3.807827 -0.181099
v 3.616763 3.710453 0.569719
v 1.469001 3.919759 -0.151483
v 0.997591 3.881371 -2.015898
v 2.301183 3.795490 -3.329286
v 4.496953 3.712400 -3.203893
v 6.198072 5.242523 -1.988740
v 6.267436 4.355624 -1.966338
v 5.454075 4.834156 0.142490
v 3.560785 4.705492 1.087754
v 0.909507 4.975901 0.170665
v 0.463094 4.417014 -2.229539
v 0.471036 5.304851 -2.278205
v 2.112639 4.310986 -3.871004
v 2.120039 5.200339 -3.919775
v 4.632607 4.260859 -3.606856
v 4.586802 5.152739 -3.637961
v 3.459831 5.343188 0.514255
v 3.013340 5.822433 1.870439
v 3.178590 5.107059 1.985476
v 2.039329 5.491760 -0.935256
v 0.187811 5.300004 -0.971311
v 0.163836 5.963462 -0.966553
v -0.686261 5.274297 0.488631
v -0.703756 5.940426 0.498433
v 0.025343 5.147190 2.128887
v -0.004269 5.822710 2.123215
v 1.955895 4.963836 2.884641
v 1.895764 5.634529 2.850185
v 5.109054 5.108320 -1.294453
v 5.099874 5.785753 -1.290436
v 6.489538 5.808960 -0.588267
v 6.505896 5.133623 -0.589937
v 3.632656 5.430368 -0.542256
v 3.143875 5.414984 1.143622
v 4.157113 5.079645 2.551169
v 4.147243 5.749786 2.552987
v 5.889950 5.116312 2.519818
v 5.875030 5.783854 2.520205
v 6.889115 5.147230 1.085131
v 6.870729 5.814179 1.085394
vt 0.791559 0.816393
vt 0.792110 0.832015
vt 0.792110 0.832054
vt 0.791559 0.816393
vt 0.791559 0.847643
vt 0.792110 0.863304
vt 0.796591 0.865729
vt 0.796193 0.851542
vt 0.796193 0.820292
vt 0.796591 0.834479
vt 0.796591 0.834455
vt 0.796193 0.820292
vt 0.796193 0.851542
vt 0.796591 0.865705
vt 0.792110 0.863265
vt 0.791559 0.847643
vt 0.798500 0.813912
vt 0.797750 0.835813
vt 0.790719 0.827533
vt 0.789538 0.813912
vt 0.798500 0.782662
vt 0.797750 0.804563
vt 0.797750 0.804563
vt 0.798500 0.782662
vt 0.789538 0.813912
vt 0.790719 0.827533
vt 0.797750 0.835813
vt 0.798500 0.813912
vt 0.789538 0.782662
vt 0.790719 0.796283
vt 0.790719 0.796283
vt 0.789538 0.782662
vt 0.804866 0.843062
vt 0.795578 0.872436
vt 0.791047 0.870472
vt 0.792162 0.890003
vt 0.795578 0.903686
vt 0.795578 0.903718
vt 0.804379 0.909378
vt 0.795578 0.872468
vt 0.802362 0.878128
vt 0.806882 0.874312
vt 0.795578 0.841218
vt 0.795578 0.841186
vt 0.792162 0.857155
vt 0.791047 0.870504
vt 0.788261 0.887216
vt 0.791047 0.839222
vt 0.791047 0.839254
vt 0.788261 0.857634
vt 0.300481 0.378061
vt 0.299137 0.388273
vt 0.310020 0.388509
vt 0.309554 0.378260
vt 0.318238 0.373575
vt 0.320619 0.382852
vt 0.311706 0.380988
vt 0.310869 0.372062
vt 0.298897 0.382305
vt 0.300453 0.373133
vt 0.293555 0.385634
vt 0.296000 0.375861
vt 0.319163 0.386214
vt 0.317173 0.376345
vt 0.293604 0.402449
vt 0.298729 0.421856
vt 0.302105 0.423581
vt 0.299186 0.405088
vt 0.298945 0.399120
vt 0.302223 0.419753
vt 0.311755 0.397804
vt 0.310183 0.418935
vt 0.320666 0.399668
vt 0.315916 0.420089
vt 0.319211 0.403030
vt 0.315201 0.422235
vt 0.310068 0.405324
vt 0.309225 0.423739
vt 0.307660 0.455681
vt 0.307480 0.345452
vt 0.300689 0.270499
vt 0.295125 0.301547
vt 0.300230 0.302164
vt 0.305685 0.300586
vt 0.307647 0.298267
vt 0.304278 0.296434
vt 0.298006 0.296433
vt 0.293969 0.298802
vt 0.293878 0.322298
vt 0.296467 0.337898
vt 0.300410 0.338402
vt 0.300130 0.322955
vt 0.292408 0.318784
vt 0.295694 0.335913
vt 0.304699 0.337286
vt 0.306872 0.320971
vt 0.292350 0.307539
vt 0.293835 0.310945
vt 0.297460 0.315832
vt 0.298898 0.334209
vt 0.305275 0.304786
vt 0.297382 0.304630
vt 0.305355 0.316008
vt 0.303713 0.334193
vt 0.309407 0.306980
vt 0.309461 0.318257
vt 0.306265 0.335551
vt 0.306843 0.309595
vt 0.292111 0.337786
vt 0.290206 0.347946
vt 0.293474 0.348068
vt 0.294754 0.337876
vt 0.300113 0.311592
vt 0.300920 0.368405
vt 0.299675 0.308510
vt 0.301082 0.337905
vt 0.306432 0.337645
vt 0.306548 0.337459
vt 0.301335 0.337624
vt 0.294962 0.337775
vt 0.290222 0.359550
vt 0.293855 0.378512
vt 0.295904 0.378573
vt 0.293480 0.359681
vt 0.293770 0.359578
vt 0.296102 0.378479
vt 0.300813 0.378572
vt 0.301382 0.359730
vt 0.293752 0.347990
vt 0.301735 0.359333
vt 0.301057 0.378363
vt 0.308314 0.347628
vt 0.301722 0.347872
vt 0.308321 0.359062
vt 0.305056 0.378260
vt 0.308158 0.347890
vt 0.308159 0.359326
vt 0.304947 0.378388
vt 0.301383 0.348192
vt 0.299732 0.411445
vt 0.281761 0.344596
vt 0.280507 0.352662
vt 0.290663 0.350791
vt 0.290228 0.343032
vt 0.298332 0.349968
vt 0.300554 0.359151
vt 0.292237 0.363574
vt 0.291455 0.353576
vt 0.280282 0.363018
vt 0.281735 0.353124
vt 0.275298 0.357977
vt 0.277579 0.349003
vt 0.299196 0.353531
vt 0.297339 0.345320
vt 0.275343 0.373584
vt 0.280126 0.391759
vt 0.283277 0.388321
vt 0.280552 0.368269
vt 0.280328 0.378625
vt 0.283386 0.394928
vt 0.292282 0.379181
vt 0.290815 0.395273
vt 0.300599 0.374758
vt 0.296166 0.392505
vt 0.299241 0.369138
vt 0.295498 0.388889
vt 0.290708 0.366398
vt 0.289921 0.387091
vt 0.288461 0.424833
vt 0.288293 0.319093
vn -0.2753 0.2191 -0.9361
vn -0.4472 0.0278 -0.8940
vn -0.4249 0.1132 -0.8981
vn -0.2874 0.2309 -0.9296
vn 0.6622 -0.6456 -0.3805
vn 0.5669 -0.6752 -0.4720
vn 0.7384 -0.4938 -0.4593
vn 0.5590 -0.7205 -0.4105
vn 0.4511 -0.3690 0.8126
vn 0.4290 -0.6006 0.6747
vn 0.4380 -0.5826 0.6847
vn 0.4161 -0.2711 0.8680
vn -0.4775 0.7337 0.4833
vn -0.5733 0.5083 0.6427
vn -0.4804 0.5490 0.6840
vn -0.5799 0.7541 0.3083
vn -0.9275 0.3510 0.1287
vn -0.7378 0.6514 0.1766
vn -0.8766 0.4582 0.1469
vn 0.1337 0.0356 0.9904
vn 0.2717 -0.0766 0.9593
vn 0.2147 -0.0297 0.9762
vn 0.9733 -0.0916 -0.2106
vn 0.9336 -0.2442 -0.2621
vn 0.8392 -0.4395 -0.3202
vn -0.0384 0.1374 -0.9898
vn -0.1239 0.1605 -0.9792
vn -0.1422 0.1653 -0.9759
vn 0.3701 -0.7025 0.6079
vn 0.8298 -0.2327 -0.5073
vn 0.7685 -0.2259 -0.5987
vn 0.7736 0.0967 -0.6262
vn 0.0415 0.8954 -0.4434
vn -0.6176 0.3665 0.6958
vn -0.7416 0.3504 0.5720
vn 0.9086 -0.2538 -0.3316
vn 0.7190 0.5127 0.4693
vn -0.5296 0.3373 0.7783
vn -0.5202 -0.1551 -0.8398
vn -0.5111 -0.2078 -0.8340
vn 0.6047 -0.7942 -0.0602
vn 0.9702 -0.2127 -0.1163
vn 0.7317 -0.1913 0.6543
vn 0.4951 -0.7609 0.4195
vn -0.3826 -0.8500 0.3621
vn -0.6909 -0.3723 0.6197
vn -0.8964 -0.3880 -0.2145
vn -0.5087 -0.8524 -0.1212
vn -0.3567 -0.3804 -0.8532
vn -0.1740 -0.8708 -0.4598
vn 0.4893 -0.3079 -0.8160
vn 0.2786 -0.8341 -0.4761
vn 0.0429 -0.2863 0.9572
vn 0.0536 -0.8021 0.5948
vn 0.4292 0.3709 -0.8235
vn 0.2629 0.8319 -0.4887
vn 0.5294 0.8435 -0.0905
vn 0.8889 0.4375 -0.1363
vn -0.3689 0.3266 -0.8702
vn -0.1976 0.8343 -0.5147
vn -0.9209 0.3290 -0.2092
vn -0.5159 0.8480 -0.1211
vn -0.6928 0.3221 0.6452
vn -0.3948 0.8290 0.3961
vn 0.0393 0.3403 0.9395
vn 0.0317 0.8128 0.5816
vn 0.6795 0.4070 0.6105
vn 0.4228 0.8246 0.3760
vn 0.0209 0.9997 0.0095
vn 0.0256 -0.9994 0.0234
vn -0.0344 -0.9988 -0.0355
vn 0.6437 -0.7315 -0.2248
vn 0.5764 -0.7403 0.3460
vn 0.0440 -0.8090 0.5861
vn -0.4452 -0.8048 0.3925
vn -0.5840 -0.8089 -0.0676
vn -0.2805 -0.7789 -0.5609
vn 0.2428 -0.7310 -0.6377
vn 0.9504 0.0695 -0.3033
vn 0.6190 0.7528 -0.2237
vn 0.5326 0.7817 0.3246
vn 0.7606 0.4544 0.4636
vn 0.4163 0.0406 -0.9083
vn 0.3004 0.7719 -0.5604
vn 0.0658 0.7823 0.6194
vn 0.1264 0.3440 0.9304
vn -0.4482 0.3563 -0.8198
vn -0.2307 0.8467 -0.4795
vn -0.9407 -0.3299 -0.0791
vn -0.4543 -0.3068 -0.8364
vn -0.9356 0.3493 -0.0510
vn -0.5290 0.8478 0.0377
vn -0.6751 -0.3097 0.6696
vn -0.6503 0.3213 0.6884
vn -0.3561 0.7942 0.4924
vn 0.1436 -0.2475 0.9582
vn -0.0222 -0.7901 -0.6126
vn -0.0110 -0.2873 -0.9578
vn 0.7562 -0.2772 -0.5927
vn 0.4887 -0.7956 -0.3580
vn 0.8448 -0.1191 0.5217
vn 0.0430 0.9961 0.0774
vn 0.0169 -0.9998 -0.0048
vn 0.6067 -0.7863 0.1171
vn 0.2975 -0.8017 0.5184
vn -0.2846 -0.7997 0.5287
vn -0.6511 -0.7539 0.0872
vn -0.5242 -0.7479 -0.4073
vn -0.0197 0.3086 -0.9510
vn -0.0452 0.7626 -0.6453
vn 0.4991 0.7764 -0.3850
vn 0.7431 0.3149 -0.5904
vn -0.7865 0.0168 -0.6174
vn -0.5688 0.7085 -0.4177
vn 0.6257 0.7684 0.1345
vn 0.9325 0.3108 0.1837
vn -0.9890 0.0100 0.1474
vn -0.6984 0.7083 0.1023
vn -0.4381 -0.3010 0.8470
vn -0.4451 0.2937 0.8459
vn -0.3252 0.7536 0.5712
vn 0.4550 -0.2868 0.8430
vn 0.4417 0.3047 0.8438
vn 0.2878 0.7700 0.5694
vn 0.9472 -0.2638 0.1820
vn -0.0166 0.9999 0.0035
vn 0.2454 -0.8436 -0.4775
vn 0.4111 -0.3429 -0.8446
vn 0.9486 -0.2651 -0.1725
vn 0.5994 -0.7969 -0.0756
vn 0.0401 -0.7665 0.6409
vn 0.0573 0.0500 0.9971
vn -0.7384 0.0718 0.6705
vn -0.4640 -0.7635 0.4492
vn -0.9029 -0.3555 -0.2419
vn -0.5440 -0.8354 -0.0782
vn -0.3196 -0.3776 -0.8691
vn -0.2052 -0.8608 -0.4658
vn 0.7141 0.1115 0.6911
vn 0.5039 -0.7382 0.4484
vn -0.3039 0.3168 -0.8985
vn -0.1614 0.8259 -0.5402
vn 0.2433 0.8168 -0.5231
vn 0.4092 0.3321 -0.8498
vn -0.8907 0.3591 -0.2788
vn -0.5150 0.8436 -0.1523
vn -0.3925 0.8239 0.4087
vn 0.0410 0.7733 0.6327
vn 0.4263 0.8037 0.4151
vn 0.8952 0.4041 -0.1879
vn 0.5212 0.8456 -0.1156
vn 0.0388 0.9992 -0.0116
vn -0.0031 -1.0000 0.0024
usemtl citybits_texture
s 1
f 10/1/1 2/2/2 4/3/3 11/4/4
f 11/5/5 4/6/6 8/7/7 13/8/8
f 13/9/9 8/10/10 6/11/11 15/12/12
f 15/13/13 6/14/14 2/15/15 10/16/16
f 5/17/17 16/18/18 9/19/19 1/20/17
f 16/18/18 15/13/13 10/16/16 9/19/19
f 7/21/20 14/22/21 16/23/22 5/24/20
f 14/22/21 13/9/9 15/12/12 16/23/22
f 3/25/23 12/26/24 14/27/25 7/28/23
f 12/26/24 11/5/5 13/8/8 14/27/25
f 1/29/26 9/30/27 12/31/28 3/32/26
f 9/30/27 10/1/1 11/4/4 12/31/28
f 6/11/11 8/10/10 19/33/29
f 18/34/30 21/35/31 20/36/32
f 18/37/33 17/38/33 19/39/33
f 17/40/34 6/14/14 19/41/35
f 8/7/7 18/34/30 19/42/36
f 17/43/37 18/44/37 20/45/37
f 2/46/15 17/40/34 20/47/38
f 21/48/39 2/49/2 20/50/40
f 4/3/3 2/49/2 21/48/39
f 17/40/34 2/15/15 6/14/14
f 8/7/7 4/3/6 21/35/31 18/34/30
f 37/51/41 50/52/42 39/53/43 31/54/44
f 33/55/45 42/56/46 44/57/47 34/58/48
f 34/58/48 44/57/47 46/59/49 35/60/50
f 35/60/50 46/59/49 48/61/51 36/62/52
f 36/62/52 48/61/51 50/52/42 37/51/41
f 31/54/44 39/53/43 40/63/53 32/64/54
f 32/64/54 40/63/53 42/56/46 33/55/45
f 49/65/55 29/66/56 30/67/57 51/68/58
f 47/69/59 28/70/60 29/66/56 49/65/55
f 45/71/61 27/72/62 28/70/60 47/69/59
f 43/73/63 26/74/64 27/72/62 45/71/61
f 41/75/65 24/76/66 26/74/64 43/73/63
f 38/77/67 25/78/68 24/76/66 41/75/65
f 23/79/69 24/76/66 25/78/68
f 23/79/69 26/74/64 24/76/66
f 23/79/69 27/72/62 26/74/64
f 23/79/69 28/70/60 27/72/62
f 23/79/69 29/66/56 28/70/60
f 23/79/69 30/67/57 29/66/56
f 23/79/69 25/78/68 30/67/57
f 22/80/70 31/54/44 32/64/54
f 22/80/70 32/64/54 33/55/45
f 22/80/70 33/55/45 34/58/48
f 22/80/70 34/58/48 35/60/50
f 22/80/70 35/60/50 36/62/52
f 22/80/70 36/62/52 37/51/41
f 22/80/70 37/51/41 31/54/44
f 51/68/58 38/77/67 39/53/43 50/52/42
f 49/65/55 51/68/58 50/52/42 48/61/51
f 47/69/59 49/65/55 48/61/51 46/59/49
f 45/71/61 47/69/59 46/59/49 44/57/47
f 43/73/63 45/71/61 44/57/47 42/56/46
f 41/75/65 43/73/63 42/56/46 40/63/53
f 38/77/67 41/75/65 40/63/53 39/53/43
f 51/68/58 30/67/57 25/78/68 38/77/67
f 52/81/71 59/82/72 53/83/73
f 52/81/71 53/83/73 54/84/74
f 52/81/71 54/84/74 55/85/75
f 52/81/71 55/85/75 56/86/76
f 52/81/71 56/86/76 57/87/77
f 52/81/71 57/87/77 58/88/78
f 52/81/71 58/88/78 59/82/72
f 111/89/79 60/90/80 66/91/81 112/92/82
f 114/93/83 61/94/84 60/90/80 111/89/79
f 112/92/82 66/91/81 65/95/85 122/96/86
f 58/88/78 114/97/83 111/98/79 59/82/72
f 116/99/87 62/100/88 61/94/84 114/93/83
f 56/86/76 117/101/89 115/102/90 57/87/77
f 118/103/91 63/104/92 62/100/88 116/99/87
f 55/85/75 119/105/93 117/101/89 56/86/76
f 120/106/94 64/107/95 63/104/92 118/103/91
f 54/84/74 121/108/96 119/105/93 55/85/75
f 122/96/86 65/95/85 64/107/95 120/106/94
f 75/109/97 123/110/98 126/111/99 69/112/100
f 57/87/77 115/102/90 114/97/83 58/88/78
f 53/83/73 113/113/101 121/108/96 54/84/74
f 67/114/102 65/95/85 66/91/81
f 67/114/102 64/107/95 65/95/85
f 67/114/102 66/91/81 60/90/80
f 67/114/102 63/104/92 64/107/95
f 67/114/102 62/100/88 63/104/92
f 67/114/102 61/94/84 62/100/88
f 67/114/102 60/90/80 61/94/84
f 68/115/103 75/109/97 69/112/100
f 68/115/103 69/112/100 70/116/104
f 68/115/103 70/116/104 71/117/105
f 68/115/103 71/117/105 72/118/106
f 68/115/103 72/118/106 73/119/107
f 68/115/103 73/119/107 74/120/108
f 68/115/103 74/120/108 75/109/97
f 124/121/109 76/122/110 82/123/111 125/124/112
f 127/125/113 77/126/114 76/122/110 124/121/109
f 125/124/112 82/123/111 81/127/115 134/128/116
f 74/120/108 127/129/113 123/110/98 75/109/97
f 128/130/117 78/131/118 77/126/114 127/125/113
f 72/118/106 129/132/119 128/133/117 73/119/107
f 130/134/120 79/135/121 78/131/118 128/130/117
f 71/117/105 131/136/122 129/132/119 72/118/106
f 132/137/123 80/138/124 79/135/121 130/134/120
f 70/116/104 133/139/125 131/136/122 71/117/105
f 134/128/116 81/127/115 80/138/124 132/137/123
f 73/119/107 128/133/117 127/129/113 74/120/108
f 69/112/100 126/111/99 133/139/125 70/116/104
f 83/140/126 81/127/115 82/123/111
f 83/140/126 80/138/124 81/127/115
f 83/140/126 82/123/111 76/122/110
f 83/140/126 79/135/121 80/138/124
f 83/140/126 78/131/118 79/135/121
f 83/140/126 77/126/114 78/131/118
f 83/140/126 76/122/110 77/126/114
f 99/141/127 109/142/128 101/143/129 93/144/130
f 95/145/131 103/146/132 104/147/133 96/148/134
f 96/148/134 104/147/133 105/149/135 97/150/136
f 97/150/136 105/149/135 107/151/137 98/152/138
f 98/152/138 107/151/137 109/142/128 99/141/127
f 93/144/130 101/143/129 102/153/139 94/154/140
f 94/154/140 102/153/139 103/146/132 95/145/131
f 108/155/141 91/156/142 92/157/143 110/158/144
f 106/159/145 90/160/146 91/156/142 108/155/141
f 104/161/133 89/162/147 90/160/146 106/159/145
f 103/163/132 88/164/148 89/162/147 104/161/133
f 102/165/139 86/166/149 88/164/148 103/163/132
f 100/167/150 87/168/151 86/166/149 102/165/139
f 85/169/152 86/166/149 87/168/151
f 85/169/152 88/164/148 86/166/149
f 85/169/152 89/162/147 88/164/148
f 85/169/152 90/160/146 89/162/147
f 85/169/152 91/156/142 90/160/146
f 85/169/152 92/157/143 91/156/142
f 85/169/152 87/168/151 92/157/143
f 84/170/153 93/144/130 94/154/140
f 84/170/153 94/154/140 95/145/131
f 84/170/153 95/145/131 96/148/134
f 84/170/153 96/148/134 97/150/136
f 84/170/153 97/150/136 98/152/138
f 84/170/153 98/152/138 99/141/127
f 84/170/153 99/141/127 93/144/130
f 110/158/144 100/167/150 101/143/129 109/142/128
f 108/155/141 110/158/144 109/142/128 107/151/137
f 106/159/145 108/155/141 107/151/137 105/149/135
f 104/161/133 106/159/145 105/149/135
f 100/167/150 102/153/139 101/143/129
f 110/158/144 92/157/143 87/168/151 100/167/150
f 111/89/79 112/92/82 113/113/101
f 116/99/87 114/97/83 115/102/90
f 118/103/91 116/99/87 115/102/90 117/101/89
f 120/106/94 118/103/91 117/101/89 119/105/93
f 122/96/86 120/106/94 119/105/93 121/108/96
f 112/92/82 122/96/86 121/108/96 113/113/101
f 124/121/109 125/124/112 126/111/99 123/110/98
f 127/125/113 124/121/109 123/110/98
f 130/134/120 128/133/117 129/132/119
f 132/137/123 130/134/120 129/132/119 131/136/122
f 134/128/116 132/137/123 131/136/122 133/139/125
f 125/124/112 134/128/116 133/139/125 126/111/99
f 59/82/72 111/98/79 113/113/101 53/83/73
